#!OML:ASF I:\Actors\actors\Patient Classification 1\Patient 1\Session 1\Subject1.ASF
:FULLY-SPECIFIED
:DEGREES
540
root 0.244511 18.5349 8.62122 5.16921 15.645 -14.1925
lowerback 0.508608 5.09242 2.50525
upperback -3.94476 6.68846 -6.94987
thorax -3.26124 3.18495 -8.8786
lowerneck 0.7477 -14.5268 -17.3577
upperneck 27.9671 -25.4505 20.9109
head 14.9429 -11.7707 7.40629
rclavicle 4.96962e-014 -1.59028e-014
rhumerus -67.0091 71.5731 -81.5203
rradius 145.556
rwrist -43.0573
rhand 51.652 -37.752
rfingers 7.12502
rthumb 70.9936 -30.024
lclavicle 4.96962e-014 -1.59028e-014
lhumerus -41.7506 -12.114 96.7465
lradius 142.715
lwrist 55.387
lhand 73.9733 -5.39047
lfingers 7.12502
lthumb 71.7215 -444.669
rfemur 0 0 0
rtibia 0
rfoot 0 0
rtoes 0
lfemur -20.6442 -41.7596 5.10414
ltibia 27.9755
lfoot -30.3924 37.1288
ltoes -59.5854
541
root 0.239271 18.5349 8.60725 5.17072 15.8563 -14.5049
lowerback 0.897432 5.08929 3.42004
upperback -4.19313 6.69986 -7.39724
thorax -3.59058 3.14072 -9.95672
lowerneck 1.28362 -14.4304 -16.8572
upperneck 27.3362 -25.4458 21.4942
head 14.565 -11.7483 7.59543
rclavicle 6.55989e-014 -4.45278e-014
rhumerus -69.8627 72.9081 -82.5219
rradius 145.645
rwrist -44.2616
rhand 50.2269 -36.6977
rfingers 7.12502
rthumb 70.0995 -32.1128
lclavicle 6.55989e-014 -4.45278e-014
lhumerus -42.1851 -13.141 95.899
lradius 142.826
lwrist 55.0322
lhand 74.0928 -6.35291
lfingers 7.12502
lthumb 71.6539 -445.929
rfemur 0 0 0
rtibia 0
rfoot 0 0
rtoes 0
lfemur -21.0291 -41.4831 5.63002
ltibia 28.1269
lfoot -30.126 36.8344
ltoes -59.6819
542
root 0.232491 18.5338 8.59845 5.17809 16.1958 -14.7999
lowerback 1.20052 5.0546 3.91728
upperback -4.33655 6.6661 -7.62416
thorax -3.84221 3.09005 -10.5435
lowerneck 1.50262 -14.4046 -16.6394
upperneck 26.8134 -25.5495 22.1647
head 14.4128 -11.768 7.81947
rclavicle -2.18663e-014 2.54444e-014
rhumerus -72.418 72.739 -83.9203
rradius 145.897
rwrist -45.1583
rhand 48.2002 -35.7535
rfingers 7.12502
rthumb 68.7317 -35.1544
lclavicle -2.18663e-014 2.54444e-014
lhumerus -42.6213 -14.075 95.7369
lradius 142.834
lwrist 54.8445
lhand 74.0411 -6.67726
lfingers 7.12502
lthumb 71.6833 -446.125
rfemur 0 0 0
rtibia 0
rfoot 0 0
rtoes 0
lfemur -21.4926 -41.5749 6.22871
ltibia 28.2754
lfoot -30.0736 36.7623
ltoes -59.7103
543
root 0.22838 18.5309 8.60013 5.19338 16.7395 -15.1014
lowerback 1.23362 4.87691 3.87043
upperback -4.34847 6.42822 -7.48783
thorax -3.94251 2.96756 -10.3703
lowerneck 1.38624 -14.4319 -16.9683
upperneck 26.4741 -25.7099 22.7917
head 14.5247 -11.8356 8.07889
rclavicle -1.35174e-014 -4.77083e-014
rhumerus -74.089 71.7937 -85.0585
rradius 146.147
rwrist -45.2902
rhand 46.3759 -34.792
rfingers 7.12502
rthumb 67.4194 -37.3434
lclavicle -1.35174e-014 -4.77083e-014
lhumerus -43.0376 -14.4238 96.2825
lradius 142.721
lwrist 54.8951
lhand 73.7652 -6.74059
lfingers 7.12502
lthumb 71.8379 -445.495
rfemur 0 0 0
rtibia 0
rfoot 0 0
rtoes 0
lfemur -22.0691 -42.1606 6.95787
ltibia 28.3968
lfoot -30.1382 37.0114
ltoes -59.7579
544
root 0.226368 18.5276 8.60991 5.19808 17.4509 -15.3312
lowerback 0.933543 4.42709 3.0057
upperback -4.23838 5.80481 -6.8808
thorax -3.92075 2.69251 -9.15801
lowerneck 0.997376 -14.3091 -17.1957
upperneck 26.4174 -25.4281 22.6917
head 14.5134 -11.7052 8.10045
rclavicle -3.06128e-014 -2.22639e-014
rhumerus -74.8581 70.8152 -85.9036
rradius 146.308
rwrist -45.0723
rhand 45.9457 -34.4074
rfingers 7.12502
rthumb 67.1003 -37.6469
lclavicle -3.06128e-014 -2.22639e-014
lhumerus -43.4777 -13.6378 97.3785
lradius 142.584
lwrist 55.1187
lhand 73.3827 -7.01514
lfingers 7.12502
lthumb 72.0477 -444.789
rfemur 0 0 0
rtibia 0
rfoot 0 0
rtoes 0
lfemur -22.712 -43.1233 7.6993
ltibia 28.4837
lfoot -30.2158 37.4827
ltoes -59.8654
545
root 0.230032 18.5267 8.61214 5.35128 18.2017 -15.4628
lowerback 1.18102 4.39144 2.94441
upperback -4.48986 5.74593 -6.9506
thorax -4.33656 2.6414 -9.24364
lowerneck 1.39411 -14.5226 -17.1298
upperneck 26.2902 -25.8009 22.781
head 14.4879 -11.8953 8.06187
rclavicle -1.04561e-013 4.45278e-014
rhumerus -78.6231 67.2068 -90.3089
rradius 146.355
rwrist -44.2284
rhand 46.6354 -34.5867
rfingers 7.12502
rthumb 67.6103 -36.7133
lclavicle -1.04561e-013 4.45278e-014
lhumerus -44.3778 -14.079 98.2817
lradius 142.444
lwrist 55.879
lhand 72.6825 -6.9758
lfingers 7.12502
lthumb 72.4172 -442.893
rfemur 0 0 0
rtibia 0
rfoot 0 0
rtoes 0
lfemur -23.6443 -44.1849 8.54965
ltibia 28.5316
lfoot -30.3898 38.0246
ltoes -59.901
546
root 0.245628 18.5285 8.5941 5.75817 18.883 -15.5183
lowerback 1.09959 4.37301 2.91397
upperback -4.64745 5.71733 -6.94154
thorax -4.46577 2.62016 -9.22001
lowerneck 1.39623 -14.8996 -17.0304
upperneck 26.2226 -26.2499 22.4199
head 14.4867 -12.1045 7.76474
rclavicle 5.24792e-014 -2.8625e-014
rhumerus -80.5796 62.6458 -93.4311
rradius 146.123
rwrist -43.4341
rhand 47.9501 -35.3283
rfingers 7.12502
rthumb 68.556 -35.1845
lclavicle 5.24792e-014 -2.8625e-014
lhumerus -44.79 -14.0801 99.1327
lradius 142.275
lwrist 56.6674
lhand 72.4072 -6.80579
lfingers 7.12502
lthumb 72.5571 -441.972
rfemur 0 0 0
rtibia 0
rfoot 0 0
rtoes 0
lfemur -24.9882 -44.9795 9.57814
ltibia 28.526
lfoot -30.4218 38.5173
ltoes -59.9317
547
root 0.236134 18.5217 8.60539 5.71188 19.4997 -15.4645
lowerback 1.01171 4.28969 2.03455
upperback -4.49593 5.58243 -6.65099
thorax -4.38435 2.59572 -8.37574
lowerneck 1.69332 -15.0504 -17.6319
upperneck 25.6381 -26.5416 22.9976
head 14.4764 -12.2993 8.02108
rclavicle -5.725e-014 7.95139e-014
rhumerus -81.6374 58.3825 -95.926
rradius 145.771
rwrist -43.155
rhand 49.3216 -35.541
rfingers 7.12502
rthumb 69.5014 -32.8038
lclavicle -5.725e-014 7.95139e-014
lhumerus -44.8453 -13.5357 99.6998
lradius 142.181
lwrist 57.3136
lhand 72.8429 -6.65314
lfingers 7.12502
lthumb 72.3343 -443.002
rfemur 0 0 0
rtibia 0
rfoot 0 0
rtoes 0
lfemur -25.401 -45.8095 9.95974
ltibia 28.4709
lfoot -30.5801 38.848
ltoes -59.9787
548
root 0.224144 18.5134 8.61598 5.63886 20.0143 -15.3309
lowerback 0.900579 4.13587 0.994958
upperback -4.25547 5.35628 -6.25425
thorax -4.22874 2.53392 -7.32347
lowerneck 1.54839 -15.1654 -17.9349
upperneck 25.4268 -26.6045 22.9065
head 14.4589 -12.3506 7.97805
rclavicle 8.07066e-014 3.81667e-014
rhumerus -82.9412 54.8595 -99.0647
rradius 145.111
rwrist -44.5564
rhand 49.487 -35.0451
rfingers 7.12502
rthumb 69.6123 -31.9787
lclavicle 8.07066e-014 3.81667e-014
lhumerus -44.6638 -12.4892 100.001
lradius 142.202
lwrist 57.5599
lhand 73.5182 -6.36219
lfingers 7.12502
lthumb 71.974 -444.486
rfemur 0 0 0
rtibia 0
rfoot 0 0
rtoes 0
lfemur -25.633 -46.4244 10.1222
ltibia 28.3869
lfoot -30.69 38.998
ltoes -59.9747
